<svg width="24" height="20" viewBox="0 0 24 20" fill="none" xmlns="http://www.w3.org/2000/svg">
<g filter="url(#filter0_d_8919_154)">
<path d="M18.5 0C19.3125 0 20 0.6875 20 1.5C20 2 19.75 2.4375 19.375 2.71875L12.5938 7.8125C12.2188 8.09375 11.75 8.09375 11.375 7.8125L4.59375 2.71875C4.21875 2.4375 4 2 4 1.5C4 0.6875 4.65625 0 5.5 0H18.5ZM10.7812 8.625C11.5 9.15625 12.4688 9.15625 13.1875 8.625L20 3.5V10C20 11.125 19.0938 12 18 12H6C4.875 12 4 11.125 4 10V3.5L10.7812 8.625Z" fill="#FF3B00"/>
</g>
<defs>
<filter id="filter0_d_8919_154" x="0" y="0" width="24" height="20" filterUnits="userSpaceOnUse" color-interpolation-filters="sRGB">
<feFlood flood-opacity="0" result="BackgroundImageFix"/>
<feColorMatrix in="SourceAlpha" type="matrix" values="0 0 0 0 0 0 0 0 0 0 0 0 0 0 0 0 0 0 127 0" result="hardAlpha"/>
<feOffset dy="4"/>
<feGaussianBlur stdDeviation="2"/>
<feComposite in2="hardAlpha" operator="out"/>
<feColorMatrix type="matrix" values="0 0 0 0 0 0 0 0 0 0 0 0 0 0 0 0 0 0 0.25 0"/>
<feBlend mode="normal" in2="BackgroundImageFix" result="effect1_dropShadow_8919_154"/>
<feBlend mode="normal" in="SourceGraphic" in2="effect1_dropShadow_8919_154" result="shape"/>
</filter>
</defs>
</svg>
