<svg width="26" height="26" viewBox="0 0 26 26" fill="none" xmlns="http://www.w3.org/2000/svg">
<path fill-rule="evenodd" clip-rule="evenodd" d="M20.838 6.40246L6.4015 20.839L5.16406 19.6016L19.6006 5.16502L20.838 6.40246Z" fill="white"/>
<path fill-rule="evenodd" clip-rule="evenodd" d="M18.9755 5.77843C16.0654 8.68847 16.2466 13.6255 18.9755 16.3544L19.5942 16.9731L20.8316 15.7357L20.2129 15.1169C18.141 13.0451 18.0124 9.21636 20.2129 7.01586L20.8313 6.39747L19.5939 5.16004L18.9755 5.77843Z" fill="white"/>
<path fill-rule="evenodd" clip-rule="evenodd" d="M20.2182 7.0172C17.3081 9.92724 12.371 9.74604 9.64216 7.01716L9.02344 6.39844L10.2609 5.161L10.8796 5.77972C12.9515 7.85167 16.7802 7.98025 18.9807 5.77976L19.5991 5.16137L20.8365 6.39881L20.2182 7.0172Z" fill="white"/>
</svg>
