<svg width="60" height="60" viewBox="0 0 60 60" fill="none" xmlns="http://www.w3.org/2000/svg">
<path d="M11.25 21.2109H13.5938V23.5547H11.25V21.2109Z" fill="#FF3B00"/>
<path d="M14.7656 21.2109H17.1094V23.5547H14.7656V21.2109Z" fill="#FF3B00"/>
<path d="M18.2812 21.2109H20.625V23.5547H18.2812V21.2109Z" fill="#FF3B00"/>
<path d="M21.7969 21.2109H24.1406V23.5547H21.7969V21.2109Z" fill="#FF3B00"/>
<path d="M25.3125 21.2109H27.6562V23.5547H25.3125V21.2109Z" fill="#FF3B00"/>
<path d="M28.8281 21.2109H31.1719V23.5547H28.8281V21.2109Z" fill="#FF3B00"/>
<path d="M39.375 21.2109H41.7189V23.5547H39.375V21.2109Z" fill="#FF3B00"/>
<path d="M46.4062 21.2109H48.75V23.5547H46.4062V21.2109Z" fill="#FF3B00"/>
<path d="M42.8906 21.2109H45.2344V23.5547H42.8906V21.2109Z" fill="#FF3B00"/>
<path d="M42.8906 24.7266H45.2344V27.0703H42.8906V24.7266Z" fill="#FF3B00"/>
<path d="M42.8906 28.2422H45.2344V30.5859H42.8906V28.2422Z" fill="#FF3B00"/>
<path d="M42.8906 31.7578H45.2344V34.1016H42.8906V31.7578Z" fill="#FF3B00"/>
<path d="M11.25 24.7266H13.5938V27.0703H11.25V24.7266Z" fill="#FF3B00"/>
<path d="M14.7656 24.7266H17.1094V27.0703H14.7656V24.7266Z" fill="#FF3B00"/>
<path d="M18.2812 24.7266H20.625V27.0703H18.2812V24.7266Z" fill="#FF3B00"/>
<path d="M21.7969 24.7266H24.1406V27.0703H21.7969V24.7266Z" fill="#FF3B00"/>
<path d="M25.3125 24.7266H27.6562V27.0703H25.3125V24.7266Z" fill="#FF3B00"/>
<path d="M28.8281 24.7266H31.1719V27.0703H28.8281V24.7266Z" fill="#FF3B00"/>
<path d="M39.375 24.7266H41.7189V27.0703H39.375V24.7266Z" fill="#FF3B00"/>
<path d="M46.4062 24.7266H48.75V27.0703H46.4062V24.7266Z" fill="#FF3B00"/>
<path d="M11.25 28.2422H13.5938V30.5859H11.25V28.2422Z" fill="#FF3B00"/>
<path d="M14.7656 28.2422H17.1094V30.5859H14.7656V28.2422Z" fill="#FF3B00"/>
<path d="M18.2812 28.2422H20.625V30.5859H18.2812V28.2422Z" fill="#FF3B00"/>
<path d="M21.7969 28.2422H24.1406V30.5859H21.7969V28.2422Z" fill="#FF3B00"/>
<path d="M25.3125 28.2422H27.6562V30.5859H25.3125V28.2422Z" fill="#FF3B00"/>
<path d="M39.375 28.2422H41.7189V30.5859H39.375V28.2422Z" fill="#FF3B00"/>
<path d="M11.25 31.7578H13.5938V34.1016H11.25V31.7578Z" fill="#FF3B00"/>
<path d="M14.7656 31.7578H17.1094V34.1016H14.7656V31.7578Z" fill="#FF3B00"/>
<path d="M18.2812 31.7578H31.1719V34.1016H18.2812V31.7578Z" fill="#FF3B00"/>
<path d="M39.375 31.7578H41.7189V34.1016H39.375V31.7578Z" fill="#FF3B00"/>
<path d="M46.4062 28.2422H48.75V34.1016H46.4062V28.2422Z" fill="#FF3B00"/>
<path d="M51.0939 17.6953H45.2345V14.1797C45.2345 10.9485 42.6057 8.32031 39.375 8.32031C36.1444 8.32031 33.5156 10.9485 33.5156 14.1797V17.6953H27.6562V14.1797C27.6562 10.9485 25.0277 8.32031 21.7969 8.32031C18.566 8.32031 15.9375 10.9485 15.9375 14.1797V17.6953H8.90625C8.25914 17.6953 7.73438 18.2201 7.73438 18.8672V36.4454C7.73438 37.0924 8.25914 37.6173 8.90625 37.6173H15.9375V43.4767C15.9375 44.1237 16.4623 44.6486 17.1094 44.6486C17.7565 44.6486 18.2812 44.1237 18.2812 43.4767V37.6173H25.3125V41.7189C25.3125 44.6268 27.6783 46.9923 30.5859 46.9923C33.4937 46.9923 35.8594 44.6268 35.8594 41.7189V37.6173H42.8907V41.1329H39.375C38.7279 41.1329 38.2031 41.6578 38.2031 42.3048V50.5079C38.2031 53.7387 40.832 56.3674 44.0626 56.3674C47.2932 56.3674 49.922 53.7387 49.922 50.5079V42.3048C49.922 41.6578 49.3972 41.1329 48.7501 41.1329H45.2345V37.6173H51.0939C51.741 37.6173 52.2657 37.0924 52.2657 36.4454V18.8672C52.2657 18.2201 51.741 17.6953 51.0939 17.6953ZM47.5782 43.4767V50.5079C47.5782 52.4467 46.0013 54.0237 44.0626 54.0237C42.124 54.0237 40.547 52.4467 40.547 50.5079V43.4767H42.8907V46.9923C42.8907 47.6393 43.4155 48.1642 44.0626 48.1642C44.7097 48.1642 45.2345 47.6393 45.2345 46.9923V43.4767H47.5782ZM35.8594 14.1797C35.8594 12.2411 37.4364 10.6641 39.375 10.6641C41.3138 10.6641 42.8907 12.2411 42.8907 14.1797V17.6953H35.8594V14.1797ZM18.2812 14.1797C18.2812 12.2411 19.8582 10.6641 21.7969 10.6641C23.7355 10.6641 25.3125 12.2411 25.3125 14.1797V17.6953H18.2812V14.1797ZM10.078 20.0391H33.5156V28.2422H28.8281V30.5859H33.5156V31.7578H32.3438V34.1016H33.5156V35.2734C30.7193 35.2734 12.5551 35.2734 10.078 35.2734V20.0391ZM33.5156 41.7189C33.5156 43.3342 32.2013 44.6486 30.5859 44.6486C28.9706 44.6486 27.6562 43.3342 27.6562 41.7189V37.6173H33.5156V41.7189ZM49.922 35.2736H35.8594V34.1017H38.2031V31.7579H35.8594V20.0391H49.922V35.2736Z" fill="#FF3B00"/>
<path d="M7.73438 45.8203C5.79574 45.8203 4.21875 47.3973 4.21875 49.3359C4.21875 51.2746 5.79574 52.8517 7.73438 52.8517C9.67301 52.8517 11.25 51.2746 11.25 49.3359C11.25 47.3973 9.67301 45.8203 7.73438 45.8203ZM7.73438 50.5078C7.08809 50.5078 6.5625 49.9821 6.5625 49.3359C6.5625 48.6898 7.08809 48.1641 7.73438 48.1641C8.38066 48.1641 8.90625 48.6898 8.90625 49.3359C8.90625 49.9821 8.38066 50.5078 7.73438 50.5078Z" fill="#FF3B00"/>
<path d="M8.32031 10.6641C9.93563 10.6641 11.25 9.34969 11.25 7.73438C11.25 6.11906 9.93563 4.80469 8.32031 4.80469C6.705 4.80469 5.39062 6.11906 5.39062 7.73438C5.39062 9.34969 6.705 10.6641 8.32031 10.6641ZM8.32031 7.14844C8.64328 7.14844 8.90625 7.41105 8.90625 7.73438C8.90625 8.0577 8.64328 8.32031 8.32031 8.32031C7.99734 8.32031 7.73438 8.0577 7.73438 7.73438C7.73438 7.41105 7.99734 7.14844 8.32031 7.14844Z" fill="#FF3B00"/>
<path d="M51.6797 11.8359C53.9411 11.8359 55.7812 9.99574 55.7812 7.73438C55.7812 5.47242 53.9411 3.63281 51.6797 3.63281C49.4183 3.63281 47.5781 5.47242 47.5781 7.73438C47.5781 9.99574 49.4183 11.8359 51.6797 11.8359ZM51.6797 5.97656C52.6489 5.97656 53.4375 6.76512 53.4375 7.73438C53.4375 8.70375 52.6489 9.49219 51.6797 9.49219C50.7104 9.49219 49.9219 8.70363 49.9219 7.73438C49.9219 6.765 50.7104 5.97656 51.6797 5.97656Z" fill="#FF3B00"/>
<path d="M27.6562 5.97656C28.3035 5.97656 28.8281 5.4519 28.8281 4.80469C28.8281 4.15748 28.3035 3.63281 27.6562 3.63281C27.009 3.63281 26.4844 4.15748 26.4844 4.80469C26.4844 5.4519 27.009 5.97656 27.6562 5.97656Z" fill="#FF3B00"/>
<path d="M44.0625 7.14844C44.7097 7.14844 45.2344 6.62377 45.2344 5.97656C45.2344 5.32935 44.7097 4.80469 44.0625 4.80469C43.4153 4.80469 42.8906 5.32935 42.8906 5.97656C42.8906 6.62377 43.4153 7.14844 44.0625 7.14844Z" fill="#FF3B00"/>
<path d="M13.5938 14.1797C14.241 14.1797 14.7656 13.655 14.7656 13.0078C14.7656 12.3606 14.241 11.8359 13.5938 11.8359C12.9465 11.8359 12.4219 12.3606 12.4219 13.0078C12.4219 13.655 12.9465 14.1797 13.5938 14.1797Z" fill="#FF3B00"/>
<path d="M12.4219 43.4766C13.0691 43.4766 13.5938 42.9519 13.5938 42.3047C13.5938 41.6575 13.0691 41.1328 12.4219 41.1328C11.7747 41.1328 11.25 41.6575 11.25 42.3047C11.25 42.9519 11.7747 43.4766 12.4219 43.4766Z" fill="#FF3B00"/>
<path d="M22.9688 49.3359C23.616 49.3359 24.1406 48.8113 24.1406 48.1641C24.1406 47.5169 23.616 46.9922 22.9688 46.9922C22.3215 46.9922 21.7969 47.5169 21.7969 48.1641C21.7969 48.8113 22.3215 49.3359 22.9688 49.3359Z" fill="#FF3B00"/>
<path d="M54.6094 43.4766C55.2566 43.4766 55.7812 42.9519 55.7812 42.3047C55.7812 41.6575 55.2566 41.1328 54.6094 41.1328C53.9622 41.1328 53.4375 41.6575 53.4375 42.3047C53.4375 42.9519 53.9622 43.4766 54.6094 43.4766Z" fill="#FF3B00"/>
</svg>
