<svg width="96" height="96" viewBox="0 0 96 96" fill="none" xmlns="http://www.w3.org/2000/svg">
<circle cx="48" cy="48" r="48" fill="#FF3B00"/>
<path d="M62.9414 56.4258L61.5352 62.3438C61.3594 63.2227 60.6562 63.8086 59.7773 63.8086C45.0117 63.75 33 51.7383 33 36.9727C33 36.0938 33.5273 35.3906 34.4062 35.2148L40.3242 33.8086C41.1445 33.6328 42.0234 34.1016 42.375 34.8633L45.1289 41.25C45.4219 42.0117 45.2461 42.8906 44.6016 43.3594L41.4375 45.9375C43.4297 49.9805 46.7109 53.2617 50.8125 55.2539L53.3906 52.0898C53.8594 51.5039 54.7383 51.2695 55.5 51.5625L61.8867 54.3164C62.6484 54.7266 63.1172 55.6055 62.9414 56.4258Z" fill="white"/>
</svg>
